<svg xmlns="http://www.w3.org/2000/svg" viewBox="0 0 4136.54 3343.78"><defs><style>.cls-1{opacity:0.4;}.cls-2{font-size:12px;font-family:MyriadPro-Regular, Myriad Pro;}.cls-3{font-size:1270px;font-family:DINCondensed-Bold, DIN Condensed;font-weight:700;}.cls-4{fill:none;}</style></defs><title>LOGO_solo_&amp;amp;_solo</title><g id="Layer_3" data-name="Layer 3"><text x="-159" y="-207.88"></text><g class="cls-1"><path d="M2775,3075.34Q2660.19,3190,2535.88,3247.72t-281.15,57.66q-114.77,0-218.06-45.86a545.57,545.57,0,0,1-179.75-128.09q-76.53-82.12-120.53-198.79t-44-258.06q0-225.51,107.53-393.75t268.11-313.51q-103.21-145.24-170.12-300.09t-66.88-326.87q0-107,34.39-204.51t99.37-168.18q65-70.73,164.36-112.79T2362.3,812.8q126.1,0,221.65,40.15t160.49,107q65,66.93,99.37,156.71t34.43,189.15q0,191.1-118.55,365T2480.62,1990q72.59,110.88,166.29,267.55T2840,2559.45l210.27-286.68L3291.12,2441l-290.56,374.53,294.38,466.3H2905Zm-737.4-420.81q0,141.46,82.18,242.76T2328.1,2998.6q87.87,0,168.19-55.4t122.32-109L2244,2237.83q-87.94,87.95-147.22,189.25T2037.55,2654.53Zm138.64-1305.6q0,87.94,41.85,189.25t106.56,204.55q34.21-34.44,76.09-78.4a648.53,648.53,0,0,0,76.1-97.49,584.32,584.32,0,0,0,57.06-116.56q22.82-63,22.86-135.74t-49.5-133.8q-49.5-61.11-136.93-61.16t-140.81,70.75Q2176.16,1261.06,2176.19,1348.93Z" transform="translate(-159 -207.88)"/></g></g><g id="Layer_1" data-name="Layer 1"><text class="cls-2" transform="translate(1627.09 833.21)">S</text><text class="cls-3" transform="translate(1131.64 1583.21)">SOLO</text><rect x="2284.81" y="-276.61" width="69.47" height="1976" transform="translate(2871.94 -1816.03) rotate(90)"/><rect x="2284.81" y="967.36" width="69.47" height="1976" transform="translate(4115.91 -572.06) rotate(90)"/><rect x="802.81" y="217.39" width="69.47" height="988" transform="translate(1389.94 -334.03) rotate(90)"/><rect x="802.81" y="1461.36" width="69.47" height="988" transform="translate(2633.91 909.94) rotate(90)"/><rect x="802.81" y="1660.46" width="69.47" height="988" transform="translate(2833.01 1109.04) rotate(90)"/><rect x="802.81" y="2904.43" width="69.47" height="988" transform="translate(4076.97 2353.01) rotate(90)"/><rect x="3766.81" y="217.39" width="69.47" height="988" transform="translate(4353.94 -3298.03) rotate(90)"/><rect x="3766.81" y="1459.67" width="69.47" height="988" transform="translate(5596.21 -2055.75) rotate(90)"/><rect x="3766.81" y="1660.46" width="69.47" height="988" transform="translate(5797.01 -1854.96) rotate(90)"/><rect x="3766.81" y="2904.43" width="69.47" height="988" transform="translate(7040.97 -610.99) rotate(90)"/><text x="-159" y="-207.88"></text></g><g id="Layer_1_copy" data-name="Layer 1 copy"><text class="cls-2" transform="translate(1627.09 833.21)">S</text><rect class="cls-4" x="2408.08" y="732" width="128.01" height="1168.18" transform="translate(997 3580.3) rotate(-90)"/><text class="cls-2" transform="translate(1625.09 2276.28)">S</text><text class="cls-3" transform="translate(1129.64 3026.28)">SOLO</text><rect x="2282.81" y="1166.46" width="69.47" height="1976" transform="translate(4313.01 -370.96) rotate(90)"/><rect x="2282.81" y="2410.43" width="69.47" height="1976" transform="translate(5556.97 873.01) rotate(90)"/><text class="cls-2" transform="translate(1625.09 2276.28)">S</text><rect class="cls-4" x="2406.08" y="2175.07" width="128.01" height="1168.18" transform="translate(-448.07 5021.37) rotate(-90)"/></g></svg>